<?xml version="1.0" standalone="no"?>
<!DOCTYPE svg PUBLIC "-//W3C//DTD SVG 20010904//EN"
 "http://www.w3.org/TR/2001/REC-SVG-20010904/DTD/svg10.dtd">
<svg version="1.0" xmlns="http://www.w3.org/2000/svg"
 width="372.000000pt" height="306.000000pt" viewBox="0 0 372.000000 306.000000"
 preserveAspectRatio="xMidYMid meet">

<g transform="translate(0.000000,306.000000) scale(0.100000,-0.100000)"
fill="#000000" stroke="none">
<path d="M0 1530 l0 -1530 1860 0 1860 0 0 1530 0 1530 -1860 0 -1860 0 0
-1530z m2123 1440 c247 -48 481 -162 677 -331 66 -58 190 -194 190 -210 0 -3
-75 -83 -166 -178 l-166 -171 -90 95 c-105 111 -184 173 -288 225 -59 30 -167
70 -187 70 -2 0 -3 -106 -3 -237 l0 -236 80 -75 c83 -76 118 -125 145 -201 94
-267 -45 -552 -311 -642 -92 -30 -212 -30 -304 1 -292 98 -426 432 -283 704
15 28 62 86 105 128 l78 77 0 235 c0 129 -3 237 -8 240 -12 7 -147 -49 -220
-92 -94 -56 -196 -144 -271 -235 l-64 -77 -175 174 -176 174 68 81 c234 280
587 464 971 505 83 9 294 -4 398 -24z m968 -686 c27 -47 49 -91 49 -98 0 -7
-11 -22 -23 -35 -19 -17 -26 -19 -34 -9 -16 21 -123 215 -123 224 0 4 10 18
21 30 l22 23 19 -25 c11 -14 42 -63 69 -110z m-2431 -31 c-76 -140 -72 -135
-98 -117 l-22 15 26 52 c14 29 45 82 67 119 41 67 42 68 60 49 19 -19 18 -21
-33 -118z m2337 -20 c-5 -4 -57 92 -57 103 0 5 14 -15 30 -45 17 -30 29 -56
27 -58z m192 -153 c49 -126 81 -273 88 -397 l6 -113 -232 0 -231 0 -2 -27 c0
-16 -4 8 -8 52 -4 44 -11 107 -15 140 l-7 60 177 183 c97 100 181 182 185 182
5 0 22 -36 39 -80z m-2458 -126 l186 -186 -8 -36 c-4 -21 -11 -75 -15 -122 -4
-47 -9 -80 -11 -75 -2 6 -84 9 -229 7 -124 -2 -230 0 -234 5 -13 13 7 234 31
336 23 97 77 257 87 257 3 0 90 -84 193 -186z m1874 156 c17 -19 15 -25 -75
-192 -124 -231 -115 -219 -135 -172 -9 22 -17 46 -17 54 -1 13 149 286 174
318 15 17 32 15 53 -8z m-1448 -39 c7 -10 46 -79 87 -153 l75 -135 -18 -48
-18 -48 -26 44 c-59 101 -177 325 -177 336 0 27 61 30 77 4z m1203 14 c0 -7
-55 -114 -68 -134 -8 -11 -18 -5 -50 24 l-40 38 19 31 c10 17 27 34 36 38 21
8 103 10 103 3z m-831 -1038 c1 -10 -99 -186 -110 -193 -9 -5 -93 48 -104 66
-6 10 42 113 87 187 l19 32 54 -42 c29 -23 54 -45 54 -50z m804 -30 c77 -145
77 -138 17 -175 -28 -18 -55 -32 -60 -32 -5 0 -38 52 -75 117 -55 95 -64 118
-52 124 8 5 34 25 57 44 23 19 46 33 50 30 5 -3 33 -51 63 -108z m-660 -82
l27 -55 -27 -44 -26 -44 -46 16 c-25 8 -48 16 -49 18 -5 3 82 164 88 164 3 0
18 -25 33 -55z m95 22 c7 -5 23 -30 37 -56 l24 -48 -22 -36 c-26 -42 -18 -50
-90 84 l-47 86 43 -11 c23 -6 48 -15 55 -19z m382 -169 c0 -4 -21 -13 -47 -21
-47 -13 -48 -13 -66 12 -10 14 -27 43 -38 64 l-19 37 21 43 c39 76 38 77 96
-30 29 -54 53 -101 53 -105z m-171 135 c-17 -32 -52 -93 -77 -136 -45 -76 -46
-77 -84 -75 -21 2 -38 4 -38 6 0 6 110 208 123 225 11 16 55 33 95 36 9 1 2
-20 -19 -56z"/>
<path d="M1795 1821 c-87 -22 -159 -81 -197 -160 -17 -34 -22 -64 -22 -116 0
-60 4 -79 30 -125 97 -173 325 -200 452 -55 57 64 67 92 67 185 0 75 -3 91
-27 131 -33 55 -77 95 -136 121 -49 22 -124 30 -167 19z"/>
</g>
</svg>
